<svg xmlns="http://www.w3.org/2000/svg" xmlns:xlink="http://www.w3.org/1999/xlink" viewBox="0 0 1200 1200"><defs><style>.cls-1{fill:#67c2b5;}.cls-2{fill:#fff;}.cls-3{fill:#28935a;}.cls-4{fill:url(#名称未設定グラデーション_17);}</style><radialGradient id="名称未設定グラデーション_17" cx="600" cy="516.72" fx="539.9974368843853" fy="490.9135131730309" r="93.11" gradientTransform="translate(0 222.37) scale(1 0.57)" gradientUnits="userSpaceOnUse"><stop offset="0.49" stop-color="#ea5514"/><stop offset="1" stop-color="#c30d23"/></radialGradient></defs><g id="レイヤー_2" data-name="レイヤー 2"><g id="レイヤー_1-2" data-name="レイヤー 1"><circle class="cls-1" cx="600" cy="600" r="600"/><polygon class="cls-2" points="600 1131.72 100 881.72 100 531.72 600 781.72 600 1131.72"/><path class="cls-2" d="M600,266.72l-500,250,500,250,500-250ZM634.38,578c-68-9.25-121.69-28-119.81-41.82s58.57-17.58,126.63-8.34,121.7,28,119.81,41.82S702.44,587.27,634.38,578Z"/><path class="cls-2" d="M747.29,513.06c-52.77,0-83.2-16.14-91.27-42.22-5-17.38-3.73-39.74-.62-54.64,1.24-4.34,14.28-3.72,16.14-.62,9.32,26.08,36.63,79.47,85.68,79.47,50.92,0,83.82-40.35,83.82-95,0-56.5-39.11-98.72-106.79-98.72-6.83,0-18,1.24-31.66,1.86-8.7.62-8.7-23.59,0-23.59,13,1.24,23,2.48,29.8,2.48,64.57,0,99.34-36.63,99.34-92.51,0-47.81-25.46-73.27-67.06-73.27-47.18,0-73.26,54-83.19,80.72-1.25,2.48-14.91,3.1-16.15-.62-3.1-14.9-3.1-36,1.87-52.16,8.07-26.07,38.49-45.94,91.89-45.94,63.33,0,96.85,36.63,96.85,91.27,0,59.6-42.84,91.27-90,101.82v1.25c52.15,6.2,99.34,42.84,99.34,107.41,0,68.3-47.19,113-117.35,113ZM839.18,505c39.12-11.18,67.68-52.16,67.68-103.69,0-56.5-32.29-95.62-77.61-110.52v-1.24c31.66-13,68.29-46.57,68.29-100.58,0-41.6-21.73-73.27-54-82.58-3.73-1.24-.62-3.73,4.34-3.73,70.78.63,132.25,27.32,132.25,92.52,0,47.18-34.77,81.33-67.67,93.75v1.24c42.21,15.52,77.61,47.19,77.61,101.83,0,81.95-70.16,115.48-145.29,117.34C840.42,509.33,835.45,506.85,839.18,505Z"/><polygon class="cls-2" points="1090 536.72 1090 871.72 615 1109.22 615 1124.22 1100 881.72 1100 531.72 1090 536.72"/><path class="cls-3" d="M844.77,509.33c52.58-1.3,102.72-18.12,128.08-56.19l-67.23-33.61c-5.85,42.79-32.06,75.64-66.44,85.46C835.45,506.85,840.42,509.33,844.77,509.33Z"/><path class="cls-3" d="M757.22,495.05c-49.05,0-76.36-53.39-85.68-79.47-1.86-3.1-14.9-3.72-16.14.62-3.11,14.9-4.35,37.26.62,54.64,8.07,26.08,38.5,42.22,91.27,42.22h.62c70.16,0,117.35-44.7,117.35-113,0-.24,0-.48,0-.72l-24.94-12.47a116.48,116.48,0,0,1,.73,13.19C841,454.7,808.14,495.05,757.22,495.05Z"/><ellipse class="cls-4" cx="600" cy="516.72" rx="100" ry="50"/></g></g></svg>